<svg xmlns="http://www.w3.org/2000/svg" width="27" height="27" viewBox="0 0 27 27">
    <g>
        <path fill="#03989b" d="M13.5 5.329A13.674 13.674 0 0 0 0 19.171 13.819 13.819 0 0 0 9.234 32.3c.675.128.921-.3.921-.667 0-.329-.012-1.2-.019-2.354-3.755.836-4.548-1.856-4.548-1.856A3.636 3.636 0 0 0 4.09 25.4c-1.227-.858.091-.841.091-.841a2.843 2.843 0 0 1 2.067 1.427 2.836 2.836 0 0 0 3.93 1.149 2.979 2.979 0 0 1 .857-1.851c-3-.35-6.149-1.537-6.149-6.84a5.429 5.429 0 0 1 1.391-3.716 5.086 5.086 0 0 1 .132-3.662s1.134-.372 3.713 1.418a12.487 12.487 0 0 1 6.76 0c2.577-1.791 3.709-1.418 3.709-1.418a5.094 5.094 0 0 1 .135 3.662 5.419 5.419 0 0 1 1.387 3.716c0 5.317-3.156 6.487-6.163 6.83a3.349 3.349 0 0 1 .916 2.563c0 1.851-.017 3.343-.017 3.8 0 .371.243.8.928.665A13.821 13.821 0 0 0 27 19.171 13.675 13.675 0 0 0 13.5 5.329z" transform="translate(0 -5.329)"/>
    </g>
</svg>
