<svg xmlns="http://www.w3.org/2000/svg" id="instagram_3_" width="27" height="27" viewBox="0 0 27 27">
    <defs>
        <style>
            .cls-1{fill:#03989b}
        </style>
    </defs>
    <path id="Path_10710" d="M212.144 209.572a2.572 2.572 0 1 1-2.572-2.572 2.572 2.572 0 0 1 2.572 2.572zm0 0" class="cls-1" transform="translate(-196.072 -196.072)"/>
    <path id="Path_10711" d="M147.825 137.263a2.555 2.555 0 0 0-1.464-1.464 4.268 4.268 0 0 0-1.432-.266c-.814-.037-1.058-.045-3.118-.045s-2.3.008-3.118.045a4.271 4.271 0 0 0-1.432.266 2.556 2.556 0 0 0-1.464 1.464 4.27 4.27 0 0 0-.266 1.433c-.037.814-.045 1.057-.045 3.118s.008 2.3.045 3.118a4.269 4.269 0 0 0 .266 1.432 2.555 2.555 0 0 0 1.464 1.464 4.264 4.264 0 0 0 1.433.266c.814.037 1.057.045 3.118.045s2.3-.008 3.118-.045a4.264 4.264 0 0 0 1.433-.266 2.555 2.555 0 0 0 1.464-1.464 4.273 4.273 0 0 0 .266-1.432c.037-.814.045-1.058.045-3.118s-.008-2.3-.045-3.118a4.263 4.263 0 0 0-.268-1.433zm-6.014 8.512a3.962 3.962 0 1 1 3.962-3.962 3.962 3.962 0 0 1-3.963 3.963zm4.118-7.154a.926.926 0 1 1 .926-.926.926.926 0 0 1-.927.926zm0 0" class="cls-1" transform="translate(-128.31 -128.314)"/>
    <path id="Path_10712" d="M13.5 0A13.5 13.5 0 1 0 27 13.5 13.5 13.5 0 0 0 13.5 0zm7.705 16.7a5.688 5.688 0 0 1-.36 1.882 3.964 3.964 0 0 1-2.267 2.267 5.691 5.691 0 0 1-1.882.36c-.827.038-1.091.047-3.2.047s-2.369-.009-3.2-.047a5.691 5.691 0 0 1-1.882-.36 3.964 3.964 0 0 1-2.267-2.267 5.686 5.686 0 0 1-.36-1.882c-.038-.827-.047-1.091-.047-3.2s.009-2.369.047-3.2a5.688 5.688 0 0 1 .36-1.882 3.966 3.966 0 0 1 2.275-2.263 5.693 5.693 0 0 1 1.882-.36c.827-.038 1.091-.047 3.2-.047s2.369.009 3.2.047a5.694 5.694 0 0 1 1.882.36 3.965 3.965 0 0 1 2.267 2.267 5.687 5.687 0 0 1 .36 1.882c.038.827.047 1.091.047 3.2s-.017 2.365-.055 3.196zm0 0" class="cls-1"/>
</svg>
