<svg xmlns="http://www.w3.org/2000/svg" width="27" height="27" viewBox="0 0 27 27">
    <path fill="#03989b" d="M13.5 0A13.5 13.5 0 1 0 27 13.5 13.5 13.5 0 0 0 13.5 0zM9.577 20.408H6.289v-9.891h3.288zM7.933 9.166h-.021a1.714 1.714 0 1 1 .043-3.418 1.714 1.714 0 1 1-.022 3.418zm13.5 11.242h-3.288v-5.292c0-1.33-.476-2.237-1.666-2.237a1.8 1.8 0 0 0-1.687 1.2 2.252 2.252 0 0 0-.108.8v5.524H11.4s.043-8.964 0-9.892h3.288v1.4a3.264 3.264 0 0 1 2.963-1.633c2.163 0 3.785 1.414 3.785 4.452zm0 0"/>
</svg>
