<svg xmlns="http://www.w3.org/2000/svg" width="27" height="27" viewBox="0 0 27 27">
    <path fill="#03989b" d="M13.5 0A13.5 13.5 0 1 0 27 13.5 13.5 13.5 0 0 0 13.5 0zm6.164 10.526q.009.2.009.4a8.756 8.756 0 0 1-8.816 8.816 8.771 8.771 0 0 1-4.75-1.392 6.3 6.3 0 0 0 .739.043 6.217 6.217 0 0 0 3.849-1.326A3.1 3.1 0 0 1 7.8 14.915a3.088 3.088 0 0 0 1.4-.053 3.1 3.1 0 0 1-2.486-3.037v-.04a3.077 3.077 0 0 0 1.4.387 3.1 3.1 0 0 1-.959-4.137 8.8 8.8 0 0 0 6.387 3.238 3.1 3.1 0 0 1 5.28-2.826 6.215 6.215 0 0 0 1.971-.747 3.111 3.111 0 0 1-1.363 1.709 6.18 6.18 0 0 0 1.779-.488 6.3 6.3 0 0 1-1.546 1.6zm0 0"/>
</svg>
